<?xml version="1.0" encoding="UTF-8"?>
<svg xmlns="http://www.w3.org/2000/svg" viewBox="0 0 2411.55 1259.74">
  <defs>
    <style>
      .cls-1 {
        stroke-width: 3px;
      }

      .cls-1, .cls-2, .cls-3, .cls-4, .cls-5, .cls-6, .cls-7, .cls-8, .cls-9 {
        fill: none;
      }

      .cls-1, .cls-2, .cls-4, .cls-5, .cls-10, .cls-11, .cls-6, .cls-7, .cls-8, .cls-9 {
        stroke-miterlimit: 10;
      }

      .cls-1, .cls-2, .cls-4, .cls-5, .cls-11, .cls-6, .cls-7, .cls-8, .cls-9 {
        stroke: #fff;
      }

      .cls-2 {
        stroke-width: 6px;
      }

      .cls-3, .cls-12 {
        stroke-width: 0px;
      }

      .cls-4, .cls-8 {
        stroke-width: 5px;
      }

      .cls-5 {
        stroke-width: 10px;
      }

      .cls-10 {
        stroke: #000;
      }

      .cls-10, .cls-11, .cls-12 {
        fill: #fff;
      }

      .cls-6 {
        stroke-width: 4px;
      }

      .cls-8 {
        stroke-dasharray: 0 0 0 0 0 0 12 10 12 10 12 1;
      }

      .cls-9 {
        stroke-width: 7px;
      }
    </style>
  </defs>
  <g id="Layer_1" data-name="Layer 1">
    <g>
      <path class="cls-1" d="M1383,995.74c22.11.24,73.47.04,126-8,57.5-8.8,67.69-19.53,71-24,1.6-2.16,6.71-9.75,14-10,7.89-.27,10.15,9.25,17,8,7.03-1.29,8.82-9,24-23,6.66-6.14,8.58-6.75,10-7,8.45-1.5,11.86,7.35,23,7,2.07-.06,9.18-.29,14-5,1.7-1.66,2.49-3.27,5-5,3.94-2.71,8.03-2.91,9-3,8.28-.8,55.01-19.95,89-60,13.43-15.82,20.89-30.22,32-29,2.91.32,6.6,2.88,14,8,14.08,9.75,16.84,15.55,26,17,4.77.75,4.6-.73,11,0,10.06,1.14,15.13,5.33,20,7,11.99,4.1,25.9-5.98,34-12,43.24-32.15,71.7-101.39,90-97,8.54,2.05,17.9,20.87,18,21,10.33,5.77,17.9,11.61,23,16,12.3,10.59,16.56,18.14,28,21,6.05,1.51,7.13-.03,14,2,8.42,2.49,11.99,6.35,20,12,13.9,9.81,23.56,16.63,35,16,8.72-.48,10.11-4.82,19-4,8.91.82,8.76,5.31,19,8,5.74,1.51,6.59.31,31,0,6.64-.08,9.95-.13,11,0,14.92,1.8,24.31,12.24,30,17,8.8,7.36,24.55,14.33,55,11"/>
      <path class="cls-7" d="M1816,845.74c1.98,6.8,4.79,9.13,7,10,2.04.8,3.8.45,5,2,1.55,2.01-.28,4.08,1,7,1.4,3.21,4.65,3.08,5,5,.49,2.68-5.02,5.65-11.09,8.89-3.19,1.7-5.23,2.58-10.91,5.11-13,5.81-12.99,6.02-13,6-.18-.35,29.15-17.67,34-12,1.59,1.86-.56,4.99,2,9,2.09,3.28,4.71,3.06,7,6,1.48,1.9,2.83,5.15,2,11"/>
      <path class="cls-7" d="M2001,782.74c3.93-2.06,5.96-4.48,7-6,.3-.44.52-.82.59-.93,2.4-4.09,2.44-8.06,2.41-8.07-.04,0-2.93,7.13,0,12,1.41,2.34,2.9,2.07,6,5,3.85,3.65,3.35,5.78,6,9,5.61,6.8,13.11,3.59,16,9,2.77,5.19-1.76,12.62-2,13-3.07,4.9-7.13,5.26-12,12-1.45,2-2.42,3.8-3,5"/>
      <line class="cls-7" x1="1810" y1="852.74" x2="1797" y2="863.74"/>
      <path class="cls-7" d="M1817,861.74c-5.77,7.79-17.63,21.05-36,25-2.4.52-4.74.84-7,1"/>
      <path class="cls-7" d="M1789,894.74c-2.93.53-9.07,2.07-15,7-5.24,4.36-7.83,9.32-9,12"/>
      <line class="cls-7" x1="2005.2" y1="800.24" x2="1997" y2="806.74"/>
      <line class="cls-7" x1="2031" y1="804.74" x2="2012" y2="824.74"/>
      <line class="cls-7" x1="1994" y1="839.74" x2="1983.63" y2="845.74"/>
      <line class="cls-7" x1="2020.45" y1="842.74" x2="2012" y2="848.59"/>
      <path class="cls-7" d="M2021,797.74c-3.99,3.23-7.01,6.06-9,8-3.15,3.08-4.28,4.51-7,7-3.63,3.33-6.89,5.62-9,7"/>
      <path class="cls-7" d="M2230,863.74c-3.48,1.99-4.16,3.22-4,4,.44,2.24,7.77,1.01,10,5,.52.92.26,1.24,0,7-.3,6.65-.03,7.63-1,9-.57.8-2.27,2.73-7,3"/>
    </g>
    <g>
      <polygon class="cls-1" points="1914.11 166.24 1942.23 166.24 1942.23 184.15 1955.7 190.97 1971.52 178.61 1990.27 197.78 1979.45 212.95 1984.41 229.53 2005.5 229.53 2005.5 257.65 1985.65 257.77 1979.45 271.9 1992.03 284.8 1970.76 307.51 1957.11 294 1945.16 300.29 1944.57 322.24 1914.11 322.24 1914.11 300.29 1900.01 294.61 1885.12 306.89 1864.89 287.9 1876.43 271.9 1872.7 257.77 1852.22 257.77 1848.5 228.67 1871.46 229.53 1877.67 212.95 1864.31 200.06 1882.47 179.88 1897.7 190.97 1911.76 184.15 1914.11 166.24"/>
      <ellipse class="cls-1" cx="1927.01" cy="243.96" rx="36.62" ry="36.23"/>
    </g>
    <g>
      <polygon class="cls-12" points="1987 86.24 2006.23 86.24 2006.23 96.66 2015.44 100.62 2026.26 93.43 2039.08 104.59 2031.68 113.41 2035.08 123.05 2049.5 123.05 2049.5 139.4 2035.93 139.47 2031.68 147.68 2040.28 155.19 2025.74 168.39 2016.4 160.54 2008.23 164.19 2007.83 176.96 1987 176.96 1987 164.19 1977.36 160.89 1967.17 168.04 1953.34 156.99 1961.23 147.68 1958.68 139.47 1944.68 139.47 1942.13 122.55 1957.83 123.05 1962.08 113.41 1952.94 105.91 1965.36 94.17 1975.78 100.62 1985.39 96.66 1987 86.24"/>
      <ellipse class="cls-12" cx="1995.82" cy="131.44" rx="25.04" ry="21.07"/>
    </g>
    <g>
      <polygon class="cls-12" points="2040.32 177.51 2052.99 177.51 2052.99 184.49 2059.06 187.14 2066.19 182.33 2074.64 189.79 2069.76 195.7 2072 202.15 2081.5 202.15 2081.5 213.1 2072.56 213.15 2069.76 218.64 2075.43 223.67 2065.85 232.51 2059.69 227.25 2054.31 229.7 2054.05 238.24 2040.32 238.24 2040.32 229.7 2033.97 227.49 2027.26 232.27 2018.15 224.87 2023.34 218.64 2021.66 213.15 2012.44 213.15 2010.76 201.82 2021.11 202.15 2023.9 195.7 2017.88 190.68 2026.06 182.82 2032.93 187.14 2039.26 184.49 2040.32 177.51"/>
      <ellipse class="cls-12" cx="2046.13" cy="207.77" rx="16.5" ry="14.1"/>
    </g>
    <g>
      <path class="cls-8" d="M1678.5,715.29c46.54,14.8,154.51,42.9,281.29,18.13,195.75-38.25,290.53-174.05,326.05-240.7"/>
      <path class="cls-12" d="M2281.59,500.64l-20.98,2.14-.1-.73,23.17-21.49c6.44-8.27,12.87-16.54,19.31-24.81-2.37,10.21-4.75,20.41-7.12,30.62l-2.11,31.54-.54.42-11.64-17.69Z"/>
    </g>
    <g>
      <path class="cls-8" d="M2294.51,409.53c-4.43-47.64-21.41-154.67-103.63-248.13C2060.46,13.13,1865.69,12.5,1781.69,20.37"/>
      <path class="cls-12" d="M1790.64,19.58l13.14,16.49-.56.48-30.61-7.87c-10.44-.94-20.87-1.88-31.31-2.83,9.87-3.52,19.74-7.05,29.6-10.58l27.67-15.28.65.23-8.58,19.35Z"/>
    </g>
    <path class="cls-4" d="M1672.11,845.39c12.69-2.26,23.76,1.47,27.11,7.94,1.62,3.13,1.95,7.92-.7,11.21-2.7,3.35-7.32,3.72-13.41,4.53-8.05,1.08-30.03,4.03-30.28,7.76-.15,2.25,7.56,4.86,12.82,5.89,11.67,2.28,21.25-1.29,26.92-3.4,4.43-1.65,13.86-5.29,21.14-13.93,2.82-3.35,5.45-6.46,6.17-11.23,1.35-8.87-4.97-16.15-8.09-19.75-1.26-1.46-7.99-8.99-20.06-12.59-5.47-1.63-12.08-3.6-18.08-.99-2.9,1.26-5.32,3.45-9.97,12.3-4.27,8.13-5.65,12.78-8.21,19.02-2.06,5.02-7.08,16.45-15.94,28.42-5.03,6.8-7.66,10.27-12.88,13.5-4.82,2.98-9.99,4.29-20.12,6.8-8.28,2.05-13.82,3.42-21.56,4.17-14.43,1.4-25.72-.41-28.13-.82-18.62-3.13-31.72-10.76-37.14-14.24-14.64-9.4-22.56-20.17-25.61-24.7-7.55-11.24-9.86-20.93-12.63-32.53-1.18-4.93-2.1-13.43-3.82-30.45-.67-6.65-1.28-13.76,1.66-14.71,2.06-.67,5.27,1.88,6.02,2.48,3.14,2.49,4.28,5.58,4.56,6.31,2.51,6.55,8.05,11.9,12,17.89,10.54,15.95,31.71,25.57,34.42,26.78,11.4,5.06,20.79,6.32,31.68,7.79,9.85,1.33,26,3.37,45.67-.7,17.02-3.52,27.68-9.77,29.84-11.06,6-3.59,12.61-7.64,17.69-15.23,2.37-3.54,3.98-8.48,7.2-18.36,2.99-9.16,3.41-12.92,3.29-16.5-.03-.96-.23-5.36-2.09-10.81-.91-2.67-4.71-12.87-18.35-24.46-13.16-11.18-26.59-16.11-37.23-19.91-9.56-3.41-24.02-8.45-43.29-9.47-13.26-.7-47.97-2.52-70.06,18.2-3.75,3.52-14.95,14.02-15.16,29.34-.15,10.56,4.99,18.73,9.86,26.47,8.19,13.03,18.44,21.07,22.93,24.31,20.31,14.7,41.77,17.58,53.76,19.05,0,0,32.19,3.95,55.73-7.33,3.64-1.74,7.59-4.17,9.4-8.34,1.95-4.49.49-8.79-2.96-17.4-6-14.96-9-22.44-10.98-25.02-9.26-12.03-21.67-17.48-25.51-19.03-4.27-1.73-19.11-7.73-34.15-3.3-3.74,1.1-9.41,2.85-11.07,7.3-1.99,5.31,3.02,11.06,5.32,13.7,4.91,5.63,12.93,10.23,15.16,8.65,1.14-.81.78-3.22-.21-4.88-3.52-5.9-18.61-8.26-27.9-2.4-7.32,4.62-8.23,12.56-8.42,14.14-1.01,8.72,4.29,15.3,5.76,16.99,7.49,8.65,19.43,10.22,31.11,11.75,9.33,1.23,16.69.71,31.04-.38,31.86-2.41,38.44-6.89,41.45-9.39,2.4-1.99,7.71-6.51,8.3-13.35.46-5.41-2.24-9.75-5.2-14.49-3.74-5.99-7.85-9.72-12.57-13.93-5.03-4.49-10.79-9.63-19.83-14.17-8.14-4.09-14.99-5.7-20.86-7.04-18.41-4.22-33.35-3.18-36.95-2.9-3.57.29-24.65,2.17-43.8,13.09-10.03,5.72-14.34,10.94-16.79,15.36-1.51,2.71-2.34,5.15-2.81,6.87"/>
    <g>
      <path class="cls-1" d="M879.5,794.24c0,52.47-46.34,95-103.5,95-38.12,0-71.43-18.92-89.39-47.08-8.97-14.07-14.11-30.44-14.11-47.92,0-52.47,46.34-95,103.5-95s103.5,42.53,103.5,95Z"/>
      <path class="cls-12" d="M775.91,794.33c.03-31.7.06-63.39.09-95.09l13.54,1.12c4.27.44,9.68,1.25,15.81,2.83,9.14,2.36,15.97,5.44,19.56,7.19,3.34,1.63,9.28,4.76,15.46,9.35,12.37,9.18,20.31,20.19,25.15,28.58-1.99,1.02-3.97,2.04-5.96,3.06-4.53,2.32-7.92,4.07-8.76,4.5-3.31,1.7-44.6,22.91-74.89,38.46Z"/>
      <path class="cls-1" d="M854.16,762.16c.1.71.5,4.47,1.68,9.53.77,3.31,1.6,6.33,2.42,8.81,1.01,3.04,1.58,4.23,2.24,7.01,0,0,.67,2.85.93,5.57.56,5.9-1.94,8.61-3.73,16.72-1.76,7.98-.24,9.43-2.61,15.1-1.49,3.56-3.5,6.1-5.03,8.09-3.62,4.71-5.73,5.78-9.41,9.8-5.68,6.2-4.08,7.42-8.2,11.68-4.19,4.34-6.41,3.66-20.68,10.61-11.45,5.57-10.69,6.34-15.09,7.37-7,1.64-8.46-.39-21.24,0-11.41.35-11.3,2.01-16.95,1.08-6.58-1.08-6.87-3.34-19.38-8.99-11.09-5.01-11.93-3.71-16.58-7.19-4.49-3.36-3.84-4.67-12.3-14.02-7.02-7.75-7.82-7.25-10.25-11.14-2.61-4.2-2.08-5.45-5.59-16.9-4.16-13.6-5.63-14.19-5.59-19.41.04-5.56,1.7-4.5,3.73-15.46,1.93-10.45.72-12.98,3.73-18.69,1.51-2.87,3.31-5.06,6.52-8.99,3.21-3.93,4.39-4.75,8.01-8.81,7.18-8.05,5.99-8.68,9.5-11.68,4.52-3.87,7.47-3.68,16.77-7.37,8.88-3.53,10.53-5.69,14.12-7.34,0,0,1.43-.62,3.02-1.11,9.07-2.79,20.12-.36,20.12-.36,23.53,5.17,77.84,31.82,79.84,46.11Z"/>
      <line class="cls-6" x1="687.7" y1="746.79" x2="863.57" y2="841.52"/>
      <line class="cls-1" x1="776" y1="699.24" x2="776" y2="889.24"/>
      <line class="cls-1" x1="686.61" y1="842.16" x2="865.53" y2="748.32"/>
      <ellipse class="cls-5" cx="743.11" cy="795.23" rx="4.29" ry="4.13"/>
      <ellipse class="cls-5" cx="758.21" cy="856.17" rx="4.29" ry="4.13"/>
      <ellipse class="cls-5" cx="761.37" cy="825.61" rx="4.29" ry="4.13"/>
      <ellipse class="cls-5" cx="733.61" cy="843.41" rx="4.29" ry="4.13"/>
      <ellipse class="cls-5" cx="717.96" cy="808.71" rx="4.29" ry="4.13"/>
      <ellipse class="cls-5" cx="716.1" cy="777.26" rx="4.29" ry="4.13"/>
      <ellipse class="cls-5" cx="761.37" cy="761.62" rx="4.29" ry="4.13"/>
      <ellipse class="cls-5" cx="761.37" cy="734.3" rx="4.29" ry="4.13"/>
      <ellipse class="cls-5" cx="731.19" cy="748.32" rx="4.29" ry="4.13"/>
      <ellipse class="cls-5" cx="834.04" cy="811.59" rx="4.29" ry="4.13"/>
      <ellipse class="cls-5" cx="807.21" cy="794.15" rx="4.29" ry="4.13"/>
      <ellipse class="cls-5" cx="832.18" cy="780.13" rx="4.29" ry="4.13"/>
      <ellipse class="cls-5" cx="818.95" cy="843.41" rx="4.29" ry="4.13"/>
      <ellipse class="cls-5" cx="788.95" cy="855.27" rx="4.29" ry="4.13"/>
      <ellipse class="cls-5" cx="788.95" cy="828.67" rx="4.29" ry="4.13"/>
      <path class="cls-12" d="M755.99,752.09l-11.16,2.3c-.79.16-1.57-.32-1.74-1.09l-.2-.93c-.17-.76.34-1.51,1.13-1.68l11.16-2.3c.79-.16,1.57.32,1.74,1.09l.2.93c.17.76-.34,1.51-1.13,1.68Z"/>
      <path class="cls-12" d="M759.55,813.67l-8.77,7.05c-.62.5-1.55.42-2.07-.18l-.63-.73c-.52-.6-.43-1.49.19-1.99l8.77-7.05c.62-.5,1.55-.42,2.07.18l.63.73c.52.6.43,1.49-.19,1.99Z"/>
      <path class="cls-12" d="M702.95,783.1l-3.85-10.36c-.27-.74.12-1.55.89-1.81l.92-.32c.76-.26,1.6.12,1.88.85l3.85,10.36c.27.74-.12,1.55-.89,1.81l-.92.32c-.76.26-1.6-.12-1.88-.85Z"/>
      <path class="cls-12" d="M725.58,801.49l-7.7-8.13c-.55-.58-.51-1.47.09-2l.72-.64c.6-.53,1.53-.49,2.07.09l7.7,8.13c.55.58.51,1.47-.09,2l-.72.64c-.6.53-1.53.49-2.07-.09Z"/>
      <path class="cls-12" d="M729.41,761.31l-10.59-4.11c-.75-.29-1.12-1.12-.81-1.84l.37-.88c.3-.72,1.16-1.08,1.91-.78l10.59,4.11c.75.29,1.12,1.12.81,1.84l-.37.88c-.3.72-1.16,1.08-1.91.78Z"/>
      <path class="cls-12" d="M830.04,798.89l-7.31-8.46c-.52-.6-.43-1.49.19-1.99l.75-.61c.62-.5,1.55-.42,2.07.18l7.31,8.46c.52.6.43,1.49-.19,1.99l-.75.61c-.62.5-1.55.42-2.07-.18Z"/>
      <path class="cls-12" d="M831.7,836.45l-10.59-4.11c-.75-.29-1.12-1.12-.81-1.84l.37-.88c.3-.72,1.16-1.08,1.91-.78l10.59,4.11c.75.29,1.12,1.12.81,1.84l-.37.88c-.3.72-1.16,1.08-1.91.78Z"/>
      <path class="cls-12" d="M806.14,838.59l-11.01,2.89c-.78.21-1.59-.24-1.8-.99l-.26-.91c-.21-.75.25-1.53,1.03-1.73l11.01-2.89c.78-.21,1.59.24,1.8.99l.26.91c.21.75-.25,1.53-1.03,1.73Z"/>
      <path class="cls-12" d="M743.22,843.5l4.8-9.99c.34-.71,1.21-1.02,1.95-.69l.89.4c.74.33,1.05,1.17.71,1.88l-4.8,9.99c-.34.71-1.21,1.02-1.95.69l-.89-.4c-.74-.33-1.05-1.17-.71-1.88Z"/>
      <path class="cls-12" d="M846.72,817.39l-2.38-10.77c-.17-.76.34-1.51,1.13-1.68l.96-.2c.79-.16,1.57.32,1.74,1.09l2.38,10.77c.17.76-.34,1.51-1.13,1.68l-.96.2c-.79.16-1.57-.32-1.74-1.09Z"/>
      <path class="cls-12" d="M770.42,846.46l-6.52-2.53c-.63-.24-.93-.93-.68-1.53l.56-1.34c.25-.6.96-.9,1.59-.65l6.52,2.53c.63.24.93.93.68,1.53l-.56,1.34c-.25.6-.96.9-1.59.65Z"/>
      <path class="cls-12" d="M720.48,841.24l-6.52-2.53c-.63-.24-.93-.93-.68-1.53l.56-1.34c.25-.6.96-.9,1.59-.65l6.52,2.53c.63.24.93.93.68,1.53l-.56,1.34c-.25.6-.96.9-1.59.65Z"/>
      <path class="cls-12" d="M701.92,817.17l5.19-4.58c.5-.44,1.27-.41,1.73.07l1.01,1.06c.46.48.42,1.23-.08,1.67l-5.19,4.58c-.5.44-1.27.41-1.73-.07l-1.01-1.06c-.46-.48-.42-1.23.08-1.67Z"/>
      <path class="cls-12" d="M732.71,785.34l4.97-4.8c.48-.46,1.25-.46,1.73,0l1.06,1.02c.48.46.48,1.21,0,1.67l-4.97,4.8c-.48.46-1.25.46-1.73,0l-1.06-1.02c-.48-.46-.48-1.21,0-1.67Z"/>
      <path class="cls-12" d="M764.31,779.69l-1.2-6.69c-.11-.64.33-1.25,1-1.36l1.47-.25c.67-.11,1.3.32,1.41.96l1.2,6.69c.11.64-.33,1.25-1,1.36l-1.47.25c-.67.11-1.3-.32-1.41-.96Z"/>
      <path class="cls-12" d="M744.94,737.98l-1.2-6.69c-.11-.64.33-1.25,1-1.36l1.47-.25c.67-.11,1.3.32,1.41.96l1.2,6.69c.11.64-.33,1.25-1,1.36l-1.47.25c-.67.11-1.3-.32-1.41-.96Z"/>
      <path class="cls-12" d="M849.21,769.35l-4.67,5.08c-.45.49-1.22.53-1.73.1l-1.12-.96c-.51-.43-.55-1.18-.1-1.67l4.67-5.08c.45-.49,1.22-.53,1.73-.1l1.12.96c.51.43.55,1.18.1,1.67Z"/>
      <path class="cls-12" d="M818.54,806.42l-4.97,4.8c-.48.46-1.25.46-1.73,0l-1.06-1.02c-.48-.46-.48-1.21,0-1.67l4.97-4.8c.48-.46,1.25-.46,1.73,0l1.06,1.02c.48.46.48,1.21,0,1.67Z"/>
      <path class="cls-12" d="M803.25,858.17l-.86-6.74c-.08-.65.39-1.23,1.07-1.31l1.48-.18c.67-.08,1.28.38,1.36,1.03l.86,6.74c.08.65-.39,1.23-1.07,1.31l-1.48.18c-.67.08-1.28-.38-1.36-1.03Z"/>
      <path class="cls-12" d="M782.81,817.23l-.25-6.78c-.02-.65.5-1.2,1.18-1.22l1.49-.05c.68-.02,1.24.49,1.27,1.14l.25,6.78c.02.65-.5,1.2-1.18,1.22l-1.49.05c-.68.02-1.24-.49-1.27-1.14Z"/>
    </g>
  </g>
  <g id="Layer_4" data-name="Layer 4">
    <g>
      <rect class="cls-1" x="1429" y="254.24" width="285.5" height="284"/>
      <ellipse class="cls-11" cx="1451.04" cy="270.41" rx="11.98" ry="10.92"/>
      <g>
        <ellipse class="cls-11" cx="1661.57" cy="270.63" rx="5.99" ry="5.46"/>
        <ellipse class="cls-11" cx="1678.81" cy="270.63" rx="5.99" ry="5.46"/>
        <ellipse class="cls-11" cx="1696.06" cy="270.63" rx="5.99" ry="5.46"/>
      </g>
      <g>
        <rect class="cls-12" x="1450.8" y="304.71" width="112.57" height="7.43"/>
        <rect class="cls-12" x="1450.8" y="320.44" width="112.57" height="7.43"/>
        <rect class="cls-12" x="1450.8" y="336.17" width="112.57" height="7.43"/>
      </g>
      <g>
        <ellipse class="cls-12" cx="1646" cy="352.55" rx="46.23" ry="42.16"/>
        <rect class="cls-7" x="1589.47" y="300.99" width="112.57" height="103.11"/>
        <rect class="cls-10" x="1584.68" y="296.63" width="10.06" height="9.18"/>
        <rect class="cls-10" x="1584.2" y="399.74" width="10.06" height="9.18"/>
        <rect class="cls-10" x="1696.78" y="296.63" width="10.06" height="9.18"/>
        <rect class="cls-10" x="1696.78" y="399.74" width="10.06" height="9.18"/>
      </g>
      <rect class="cls-12" x="1450.8" y="353.21" width="79.04" height="7.43"/>
      <rect class="cls-12" x="1450.8" y="368.06" width="79.04" height="7.43"/>
      <rect class="cls-12" x="1450.8" y="382.92" width="79.04" height="7.43"/>
      <rect class="cls-11" x="1450.56" y="405.86" width="49.82" height="12.67" rx="4.87" ry="4.87"/>
      <g>
        <g>
          <rect class="cls-7" x="1451.04" y="440.81" width="62.31" height="70.13"/>
          <line class="cls-7" x1="1451.04" y1="440.81" x2="1513.34" y2="510.94"/>
          <line class="cls-7" x1="1513.34" y1="440.81" x2="1451.04" y2="510.94"/>
        </g>
        <g>
          <rect class="cls-7" x="1629.92" y="440.81" width="62.31" height="70.13"/>
          <line class="cls-7" x1="1629.92" y1="440.81" x2="1692.23" y2="510.94"/>
          <line class="cls-7" x1="1692.23" y1="440.81" x2="1629.92" y2="510.94"/>
        </g>
        <g>
          <rect class="cls-7" x="1540.48" y="440.81" width="62.31" height="70.13"/>
          <line class="cls-7" x1="1540.48" y1="440.81" x2="1602.78" y2="510.94"/>
          <line class="cls-7" x1="1602.78" y1="440.81" x2="1540.48" y2="510.94"/>
        </g>
      </g>
      <rect class="cls-12" x="1450.8" y="516.18" width="62.27" height="7.43"/>
      <rect class="cls-12" x="1540.37" y="516.18" width="62.27" height="7.43"/>
      <rect class="cls-12" x="1629.95" y="516.18" width="62.27" height="7.43"/>
    </g>
    <g>
      <polygon class="cls-7" points="571.63 652.24 952.82 682.32 980.42 893.98 600.54 934.46 571.63 652.24"/>
      <polygon class="cls-12" points="567.03 657.45 571.63 652.24 600.54 934.46 594.63 931.57 567.03 657.45"/>
      <polygon class="cls-7" points="590.03 664.97 616.32 914.8 967.28 883.57 942.3 695.04 590.03 664.97"/>
      <polygon class="cls-12" points="948.22 693.3 971.88 882.99 967.28 883.57 942.3 695.04 590.03 664.97 948.22 693.3"/>
      <polyline class="cls-12" points="846.97 908.2 848.97 940.24 746.45 956.44 744.87 919.08 746.45 956.44 740.53 951.23 738.07 919.8"/>
      <polyline class="cls-7" points="738.07 946.55 722.79 949.5 749.08 963.38 873.95 941.4 848.97 932.32"/>
      <polyline class="cls-7" points="738.07 938.81 653.78 952.39 705.04 981.3 939.5 938.81 873.95 919.03 848.97 922.47"/>
      <polygon class="cls-12" points="651.15 959.33 705.04 988.24 939.5 944.4 939.5 938.81 705.04 981.3 653.78 952.39 651.15 959.33"/>
    </g>
    <g>
      <polygon class="cls-7" points="2202.5 584.24 1886.34 584.24 1832.5 584.24 1832.5 372.24 1887.14 372.24 2202.5 372.24 2202.5 584.24"/>
      <line class="cls-7" x1="1887.14" y1="372.24" x2="1886.34" y2="584.24"/>
      <line class="cls-7" x1="1939.98" y1="372.24" x2="1939.18" y2="584.24"/>
      <line class="cls-7" x1="1991.78" y1="372.24" x2="1990.98" y2="584.24"/>
      <line class="cls-7" x1="2046.91" y1="372.24" x2="2046.11" y2="584.24"/>
      <line class="cls-7" x1="2098.34" y1="372.24" x2="2097.54" y2="584.24"/>
      <line class="cls-7" x1="2151.99" y1="372.24" x2="2151.19" y2="584.24"/>
      <line class="cls-6" x1="1921.64" y1="372.24" x2="1921.64" y2="584.24"/>
      <rect class="cls-12" x="1838.05" y="391.4" width="79.55" height="22.2" rx="9.68" ry="9.68"/>
      <rect class="cls-12" x="1887.26" y="423.18" width="79.55" height="22.2" rx="9.68" ry="9.68"/>
      <rect class="cls-12" x="1909.83" y="452.34" width="122.1" height="22.2" rx="9.68" ry="9.68"/>
      <rect class="cls-12" x="1979.39" y="481.51" width="135.05" height="22.2" rx="9.68" ry="9.68"/>
      <rect class="cls-12" x="2099.64" y="510.24" width="66.6" height="22.2" rx="9.36" ry="9.36"/>
      <rect class="cls-12" x="2152.18" y="542.45" width="48.1" height="22.2" rx="7.96" ry="7.96"/>
    </g>
    <g>
      <path class="cls-7" d="M1176.36,559.06c-8.7-.78-19.83-.79-32.36,1.68-29.25,5.78-48.82,21.72-57.9,30.28-5.11,6.17-10.22,12.34-15.33,18.51-3.26,4.21-8.34,11.88-11.07,22.71-2.85,11.3-1.82,20.79-.85,26.08"/>
      <path class="cls-7" d="M1197.47,559.06c-.49,6.21-1.99,16.26-7.49,26.92-4.52,8.76-13.35,21.07-62.16,49.63-24.25,14.19-27.17,14.62-37.07,22.71-9.89,8.08-22.92,21.19-30.2,40.37-10.01,26.37-.51,41.42.85,71.5,2.57,56.65-27.99,72.67-39.17,154.77-1.42,10.42-3.28,27.42,0,48.79,3.08,20.04,9.43,35.86,14.48,46.26"/>
      <polyline class="cls-3" points="1207.87 575.05 1184.02 625.51 1107.24 689.44 1080.14 736.54 1080.14 789.54 1073.33 859.35 1047.78 941.78 1056.68 1004.33"/>
      <polyline class="cls-3" points="1218.08 590.19 1197.47 641.52 1143.15 672.62 1107.24 707.24 1107.24 766.11 1116.52 823.61 1100.58 876.17 1085.25 926.64 1085.25 982.42"/>
      <path class="cls-7" d="M1229.15,593.55c1.59,9.1,4,17.22,6.82,24.39,23.51,59.94,87.06,84.99,108.99,92.53-.28-.28-.57-.56-.85-.84"/>
      <path class="cls-7" d="M1237.67,581.28c1.68,9.75,5.01,22.65,11.92,36.66,10.08,20.42,23.32,34.11,32.36,42.06,8.52,6.17,17.03,12.34,25.55,18.51"/>
      <path class="cls-7" d="M1266.44,575.05c13.24,1.46,49.26,7.21,80.22,36.17,18.14,16.97,27.57,35.38,32.37,47.1,5.77,12.57,13.12,31.57,17.02,55.52,6.83,41.99-4.22,54.64,3.41,85.8,9.7,39.61,33.15,42,42.58,74.02,6.54,22.24,5.76,56.88-30.65,109.35"/>
      <path class="cls-7" d="M1282.8,564.95c11.16.07,33.27,1.7,57.05,14.3,27.61,14.63,41.99,35.85,47.68,45.42,4.66,6.24,9.35,13.51,13.62,21.87,14.29,27.96,17.01,54.69,17.03,72.34-1.39,11.81-2.01,26.73,0,43.74,2.97,25.18,10.54,45.24,17.03,58.88,6.24,8.41,12.49,16.82,18.73,25.23,4.79,6.47,11.9,17.87,15.33,33.65,4.88,22.43-.5,40.76-3.41,48.79-6.24,11.78-12.49,23.55-18.73,35.33-5.11,11.78-10.22,23.55-15.33,35.33"/>
      <path class="cls-7" d="M1266.44,548.42c15.08-2.32,38.45-3.74,64.9,3.91,9.83,2.84,18.36,6.44,25.55,10.09,9.65,6.17,19.3,12.34,28.95,18.51,3.86,3.88,10.3,10.75,17.03,20.19,22.94,32.18,29.17,66.16,35.76,104.3,1.53,8.86,3.59,22.2,5.11,38.69-1.13,34.78,7.92,56.72,17.03,70.66,9.07,13.87,23.79,28.36,35.18,57.16,2.74,6.93,4.56,12.83,5.69,16.87.72,3.08,1.57,7.75,1.7,13.46.28,12.59-3.05,27.49-25.55,60.56-8.01,11.78-19.21,26.98-34.06,43.74"/>
      <path class="cls-7" d="M1285.35,877.02c12.96-13.14,33.1-37.05,45.98-72.34,0,0,10.65-25.37,11.92-62.24.07-1.91.15-5.79-1.7-10.09-5.17-12.01-20.44-15.8-28.95-18.51-15.21-4.83-27.17-13.32-51.09-30.28-13.1-9.29-30.01-25.19-44.28-53.83.28-.17.57-.35.85-.52,0,0-.85.52-.85.52-51.82,31.64-74.93,80.75-74.93,80.75-5.06,10.76-11.4,27.21-14.48,48.79-1.01,8.03-8.08,72.39,38.32,114.39,18.13,16.41,38,23.58,51.09,26.92,12.83-4.97,30.91-9.49,45.98-1.68,19.76,10.23,14.04,31.13,32.38,50.4,24.41,25.66,54.88,9.79,96.2,31.19,28.3,14.65,45.1,37.79,54.5,53.83,3.13.05,7.56-.07,12.77-.84,40.51-6.03,64.55-42.47,69.82-50.47,24.46-37.07,21.06-75.96,18.73-102.62-1.71-19.64-5.52-57.27-33.21-84.96-.06-.06-.07-.07-.19-.19-20.54-20.49-37.89-41.35-52.61-62.06,2.31-20.65,7.06-87.48-37.47-144.68-41.05-52.73-122.54-95.44-177.12-68.97-12.4,6.01-21.21,14.53-27.25,21.87-8.76-5.13-23.45-12.03-42.58-13.46-42.35-3.17-72.26,23.03-78.34,28.6-14.12,10.56-37.62,31.25-53.65,64.77,0,0-18.77,39.25-17.03,85.8.32,8.55,1.49,21.21,1.7,23.55,1.96,21.24,4.69,38.6,6.81,50.47.83,9.09,1.08,22.49-2.55,37.85-7.38,31.22-23.47,39.58-34.91,66.45-14.57,34.21-8.35,67.24-5.96,79.91,7.69,40.78,30.25,67.9,41.72,79.91,16.46-20.75,32.93-41.5,49.39-62.24,13.97-11.03,38.12-26.8,71.53-33.65,12.61-2.58,24.15-3.41,34.06-3.36.28-6.31.81-13.06,1.7-20.19,1.1-8.83,2.59-16.98,4.26-24.39"/>
      <path class="cls-7" d="M1426.71,530.46l69.82-65.61c-1.62-9.14-3.73-28.71,5.11-50.47,4.97-12.24,11.77-21.15,17.03-26.92-9.91-3.8-25.62-11.17-40.87-25.23-9.31-8.59-35.22-32.48-35.76-65.61-.34-20.63,9.32-35.51,20.44-52.15,12.03-18,36.78-48.91,83.45-74.02,42.95-27.91,81.37-42.5,107.29-50.47,101.25-31.13,190.37-16.21,246.94-6.73,27.58,4.62,46.25,7.75,71.53,16.82,32.77,11.77,96.74,34.73,139.65,99.25,42.2,63.45,38.89,129.28,37.47,151.41-2.52,39.05-13.54,69.87-22.14,89.16-11.52,19.64-31.27,48.32-63.01,75.7-8.45,7.29-20.89,17.19-39.17,28.6-48.5,30.25-135.89,84.92-214.58,55.52-13.74-5.14-34.98-15.69-56.65-39.53-23.95,15.14-45.68,21.48-60.86,24.39-64.09,12.31-145.7-10.62-175.41-67.29-7.19-13.72-9.92-26.7-11.07-35.87-26.4,6.35-52.79,12.7-79.19,19.05Z"/>
      <path class="cls-7" d="M1523.78,150.27c-4.54,3.07-11.09,7.63-18.73,13.46-19,14.48-39.09,29.78-56.2,52.15-9.03,11.81-29.54,40.4-28.95,79.07.16,10.61,1.89,19.34,3.41,25.23"/>
      <path class="cls-7" d="M1430.11,340.37c1.65,4.13,4.28,9.52,8.52,15.14,4.73,6.28,9.78,10.63,13.62,13.46"/>
      <path class="cls-7" d="M1791.15,641.5c8.16,6.13,22.03,14.8,40.87,18.51,16.85,3.31,31.43,1.42,51.09-3.36,22.21-5.4,54.91-15.46,93.67-35.33"/>
      <line class="cls-7" x1="1985.3" y1="616.26" x2="2006.71" y2="605.33"/>
    </g>
    <g>
      <g>
        <polygon class="cls-7" points="843.31 250.77 855.25 235.93 861.97 231.43 865.1 237.56 868.11 243.47 876.3 287.48 871.96 293.09 843.31 250.77"/>
        <polyline class="cls-12" points="866.9 228.13 867.29 230.06 879.05 287.05 874.57 292.91 871.96 293.09 876.3 287.48 868.11 243.47 861.97 231.43"/>
        <ellipse class="cls-7" cx="879.06" cy="307.41" rx="13.3" ry="8.71" transform="translate(2.59 622.13) rotate(-39.03)"/>
        <ellipse class="cls-7" cx="880.58" cy="307.53" rx="14.8" ry="9.76" transform="translate(3.66 625.36) rotate(-39.17)"/>
        <path class="cls-12" d="M877.06,298.21c.95-.61,2.48-1.48,4.35-2.06,1.11-.34,1.92-.43,2.56-.54,1.06-.18,2.93-.38,4.74.2,1.3.42,2.1,1.08,2.58,1.59.57.61.9,1.18,1.13,1.62.63,1.19.83,2.27.88,2.54.28,1.59.11,3.17-.2,4.5-.23.74-.62,1.81-1.34,3.08-1.19,2.12-2.67,3.76-3.68,4.76-.93.85-2.39,2.06-4.32,3.16-2.66,1.52-4.88,2.08-6.09,2.32-1.13.16-2.76.27-4.41-.12-2.66-.62-3.91-2.18-4.44-3.01.56.57,2.24,2.02,5.57,1.96,2.77-.05,5.26-1.11,6.39-1.65,1.06-.5,3.08-1.57,5.11-3.5,3.15-3,4.11-5.99,4.36-6.86.3-.96.66-2.46.46-4.06-.27-2.16-1.42-3.35-2.07-3.89-.51-.43-1.49-1.31-3.26-1.66-3.32-.65-7.04.98-8.33,1.59Z"/>
      </g>
      <g>
        <path class="cls-7" d="M1341.26,191.38l-3.67-2.74c7.61-7.11,11.47-10.62,11.57-10.53,0,0,0,.02,0,.04,1.11,0,2.54.08,4.2.33.95.15,1.96.35,3.04.64,9.74,2.6,15.54,9.56,17.11,11.59,2.06,2.66,6.59,8.5,5.93,15.83-.46,5.14-3.25,8.5-4.67,9.97-1,1.27-2.81,3.15-5.77,4.47-1.6.71-3.14.9-13.18.7-5.84-.12-6.26-.22-8.34-.08-4.78.32-8.5.62-10.65,3.17-1.34,1.59-1.61,3.49-1.64,4.77l-4.15-1.34c-.46-1.28-1.28-4.15-.09-6.94,1.21-2.85,3.86-4.08,6.36-5.2,3.75-1.68,5.68-1.46,10.06-2.44,6.04-1.35,11.35-2.54,14.21-6.65.45-.64,3.38-5.04,1.24-10.48-1.76-4.46-6.28-7.96-10.64-8.81-.42-.08-1.72-.31-3.36-.17-4.28.38-6.75,2.94-7.55,3.87Z"/>
        <polygon class="cls-12" points="1346.03 177.24 1334.33 187.24 1334.09 188.81 1336.4 191.12 1340.63 191.94 1341.26 191.38 1337.59 188.65 1349.15 178.15 1351.98 178.31 1346.03 177.24"/>
        <path class="cls-12" d="M1348.92,187.53c1.09.73,2.62,1.85,4.28,3.39,2.74,2.55,5.3,4.94,5.89,8.19.17.98.36,3.09-1.1,5.61-2.97,3.89-6.15,5.47-8.57,6.18-2.59.76-3.67.34-9.83,1.74-2.05.46-4.22,1.03-6.55,2.43-1.22.74-2.13,1.49-2.74,2.05-.71.73-1.59,1.79-2.31,3.25-.66,1.33-.98,2.57-1.15,3.53-.02,1.16-.03,2.32-.05,3.47l4.23.82c-.27-.78-.62-2.08-.54-3.62.21-3.92,3.04-6.22,3.97-6.98.75-.61,1.99-1.47,3.83-2.11,2.42-.53,4.84-1.07,7.27-1.6,2.27-.49,4.54-.98,6.8-1.47,1.24-.37,2.62-.86,4.07-1.53,1.02-.47,1.93-.97,2.74-1.46.48-.45.98-.96,1.48-1.54.74-.86,1.34-1.7,1.82-2.48.5-1.05,1.18-2.88,1.07-5.31-.07-1.45-.39-2.68-.72-3.61-.44-1.08-1.18-2.54-2.47-4.03-.54-.63-1.09-1.16-1.61-1.61-.76-.59-1.82-1.31-3.17-1.96-1.3-.62-2.48-.99-3.39-1.21"/>
        <g>
          <ellipse class="cls-7" cx="1325.69" cy="241.53" rx="7.13" ry="8.28" transform="translate(605.13 1380.21) rotate(-68)"/>
          <ellipse class="cls-7" cx="1324.56" cy="241.1" rx="7.97" ry="9.25" transform="translate(635.51 1397.74) rotate(-69.53)"/>
          <path class="cls-12" d="M1332.47,237.94c-.31-.59-.87-1.48-1.83-2.35-.58-.52-1.09-.81-1.48-1.07-.63-.42-1.82-1.12-3.43-1.43-1.15-.23-2.1-.18-2.73-.1-.76.1-1.32.25-1.74.38-1.14.35-1.91.78-2.1.89-1.12.64-1.93,1.42-2.49,2.13-.28.42-.62,1.03-.87,1.85-.41,1.36-.34,2.59-.22,3.38.15.69.46,1.72,1.17,2.85.97,1.55,2.19,2.53,2.9,3.03.69.44,1.77,1.01,3.15,1.37,2.23.57,4.01.26,4.86.05-.72.08-2.74.21-5.04-.89-1.9-.91-3.03-2.2-3.5-2.81-.45-.57-1.24-1.71-1.52-3.25-.44-2.39.63-4.08.97-4.56.35-.54.98-1.34,2.06-2.01,1.45-.91,2.95-1.09,3.72-1.13.61-.03,1.81-.12,3.24.29,2.7.77,4.34,2.72,4.88,3.41Z"/>
        </g>
      </g>
      <g>
        <path class="cls-7" d="M822.44,398.96l-2.45,2.57c-3.67-8.11-5.47-12.19-5.39-12.26,0,0,.01,0,.02.02.18-.95.45-2.17.89-3.54.25-.78.55-1.62.92-2.48,3.31-7.82,8.99-11.3,10.63-12.22,2.15-1.2,6.86-3.83,11.78-1.66,3.45,1.52,5.31,4.65,6.09,6.2.71,1.13,1.72,3.1,2.16,5.94.24,1.53.12,2.9-1.59,11.51-1,5-1.13,5.34-1.37,7.17-.53,4.19-.91,7.46.49,9.87.87,1.5,2.14,2.15,3.01,2.45l-1.57,3.29c-.95.12-3.04.2-4.77-1.43-1.76-1.67-2.18-4.21-2.56-6.61-.56-3.59-.11-5.21-.09-9.2.03-5.5.05-10.33-2.32-13.69-.37-.52-2.92-4.01-6.98-3.35-3.33.54-6.44,3.68-7.71,7.25-.12.35-.49,1.42-.64,2.86-.42,3.77.95,6.45,1.46,7.35Z"/>
        <polygon class="cls-12" points="813.5 391.77 818.51 404.03 819.55 404.58 821.49 403.09 822.72 399.62 822.44 398.96 819.98 401.53 814.62 389.28 815.17 386.88 813.5 391.77"/>
        <path class="cls-12" d="M821,391.53c.67-.78,1.68-1.86,3-2.95,2.17-1.8,4.22-3.5,6.54-3.29.7.06,2.17.36,3.67,2.17,2.19,3.4,2.78,6.49,2.89,8.73.12,2.4-.34,3.24-.36,8.85,0,1.86.04,3.86.63,6.17.31,1.21.69,2.16.98,2.8.39.77.98,1.76,1.86,2.7.81.86,1.61,1.41,2.24,1.76.79.27,1.58.53,2.37.8l1.23-3.47c-.58.06-1.52.08-2.56-.33-2.66-1.03-3.78-3.97-4.16-4.94-.3-.78-.69-2.04-.84-3.76.02-2.2.03-4.41.05-6.61.02-2.06.04-4.12.06-6.18-.06-1.15-.18-2.45-.41-3.84-.16-.98-.36-1.88-.57-2.68-.23-.51-.51-1.05-.82-1.61-.47-.83-.96-1.52-1.41-2.11-.64-.66-1.79-1.64-3.47-2.07-1-.26-1.9-.25-2.58-.17-.81.14-1.92.46-3.15,1.25-.52.33-.97.69-1.35,1.04-.53.53-1.19,1.28-1.84,2.31-.63.99-1.07,1.92-1.36,2.65"/>
        <g>
          <ellipse class="cls-7" cx="854.34" cy="423.28" rx="7.08" ry="5.21" transform="translate(272.83 1178.87) rotate(-78.77)"/>
          <ellipse class="cls-7" cx="853.87" cy="424.16" rx="7.93" ry="5.8" transform="translate(277.65 1183.75) rotate(-79.23)"/>
          <path class="cls-12" d="M852.95,416.66c-.45.14-1.15.42-1.9,1.07-.44.38-.73.76-.97,1.04-.39.45-1.05,1.33-1.52,2.64-.34.94-.45,1.77-.5,2.33-.05.68-.03,1.19-.01,1.58.06,1.06.23,1.82.28,2.01.26,1.11.67,1.97,1.07,2.61.24.33.61.76,1.13,1.15.87.65,1.72.85,2.28.92.5.02,1.25-.03,2.13-.39,1.22-.5,2.08-1.34,2.53-1.84.41-.5.97-1.3,1.43-2.42.74-1.79.81-3.4.8-4.18-.06.64-.29,2.41-1.4,4.15-.92,1.44-1.99,2.13-2.48,2.4-.46.26-1.37.69-2.47.6-1.71-.14-2.7-1.43-2.97-1.83-.31-.42-.77-1.14-1.06-2.21-.39-1.45-.28-2.78-.19-3.45.07-.53.2-1.58.71-2.73.95-2.15,2.54-3.15,3.11-3.46Z"/>
        </g>
      </g>
      <g>
        <path class="cls-7" d="M1293.04,305.97l-3.2,1.01c-.06-9.13-.04-13.71.06-13.73,0,0,0,0,.01.03.54-.76,1.26-1.7,2.2-2.7.53-.57,1.13-1.15,1.8-1.73,6.05-5.24,12.49-5.39,14.32-5.35,2.39.05,7.63.16,11.15,4.65,2.47,3.15,2.89,6.91,2.97,8.69.18,1.38.3,3.66-.44,6.42-.4,1.49-1.04,2.65-5.98,9.42-2.87,3.94-3.13,4.17-4.06,5.67-2.13,3.45-3.77,6.17-3.47,9.05.18,1.79,1.05,3.03,1.71,3.75l-2.7,2.11c-.89-.39-2.79-1.41-3.68-3.76-.91-2.4-.28-4.89.34-7.22.93-3.49,1.97-4.7,3.57-8.24,2.2-4.88,4.14-9.18,3.36-13.41-.12-.66-1.01-5.1-4.89-6.62-3.19-1.25-7.19-.08-9.74,2.44-.25.24-.99,1.01-1.71,2.21-1.86,3.14-1.71,6.24-1.61,7.31Z"/>
        <polygon class="cls-12" points="1287.93 294.92 1287.53 308.44 1288.24 309.48 1290.56 309.16 1293.03 306.71 1293.04 305.97 1289.84 306.98 1289.91 293.28 1291.36 291.42 1287.93 294.92"/>
        <path class="cls-12" d="M1294.71,298.61c.91-.34,2.23-.78,3.84-1.07,2.65-.47,5.14-.92,7.13.47.6.42,1.79,1.45,2.41,3.85.61,4.18-.1,7.23-.89,9.28-.85,2.2-1.59,2.71-3.83,7.69-.74,1.66-1.5,3.46-1.88,5.83-.2,1.24-.24,2.28-.24,3.01.04.89.17,2.08.59,3.37.38,1.19.87,2.09,1.3,2.73.6.65,1.2,1.3,1.8,1.95l2.47-2.45c-.54-.25-1.39-.72-2.15-1.62-1.96-2.3-1.8-5.5-1.74-6.57.04-.85.19-2.17.74-3.79.89-1.95,1.77-3.91,2.66-5.86.84-1.82,1.67-3.65,2.51-5.47.41-1.06.81-2.27,1.16-3.63.24-.96.42-1.86.55-2.68,0-.58-.03-1.2-.1-1.86-.09-.98-.25-1.86-.42-2.61-.31-.92-.94-2.39-2.27-3.65-.79-.75-1.6-1.21-2.24-1.49-.78-.3-1.9-.59-3.3-.53-.59.03-1.14.11-1.62.22-.68.2-1.57.53-2.56,1.1-.95.55-1.71,1.15-2.26,1.66"/>
        <g>
          <ellipse class="cls-7" cx="1311.82" cy="344.26" rx="6.8" ry="5.42" transform="translate(394.72 1343.41) rotate(-62.16)"/>
          <ellipse class="cls-7" cx="1311.04" cy="344.8" rx="7.63" ry="6.03" transform="translate(399.32 1348.03) rotate(-62.47)"/>
          <path class="cls-12" d="M1313.2,337.63c-.46-.11-1.19-.22-2.11-.04-.55.11-.95.3-1.27.42-.53.2-1.46.63-2.4,1.56-.67.66-1.11,1.34-1.37,1.82-.31.57-.5,1.05-.64,1.4-.37.97-.51,1.74-.55,1.93-.21,1.12-.18,2.11-.08,2.88.09.42.24,1,.55,1.61.51,1.03,1.19,1.66,1.66,2.01.43.28,1.12.63,2.05.77,1.28.19,2.38-.11,2.98-.32.56-.23,1.38-.65,2.23-1.41,1.37-1.21,2.07-2.61,2.37-3.31-.31.54-1.21,2-2.89,2.97-1.4.8-2.61.86-3.16.85-.51,0-1.49-.1-2.44-.75-1.47-1.02-1.83-2.68-1.92-3.18-.11-.54-.23-1.41-.06-2.52.23-1.5.85-2.62,1.2-3.17.28-.44.81-1.31,1.71-2.07,1.7-1.42,3.52-1.48,4.14-1.47Z"/>
        </g>
      </g>
      <g>
        <path class="cls-7" d="M1313.42,196.48c-66.25,11.87-84.29,35.25-87.1,56.06-6.21,45.96,60.47,89.71,51.18,137.44-6.49,33.34-42.25,28.6-57.04,72-9.14,26.8-4.6,55.31.37,74.62"/>
        <path class="cls-7" d="M1302.8,213.2c-1.39-2.39-.47-5.05.7-7.03,2.53-4.28,6.05-7.77,10.26-10.18-4.15-3.33-8.64-6.9-12.79-10.23"/>
      </g>
      <g>
        <path class="cls-7" d="M896.48,278.32c132.31,5.55,170.89,19,180.43,30.77,17.1,21.09-59.06,36.69-90.22,86.57-1.98,3.17-37.79,62.7,20.05,77.27,43.82,11.04,103.71-13.23,154-2.15,38.43,8.47,46.69,32.16,46.47,53.3"/>
        <path class="cls-7" d="M900.79,288.56c2.82-1.51,3.07-3.58,1.8-5.38s-3.89-3.41-6.46-4.98c5.92,1.02,13.03.26,18.47-1.12"/>
      </g>
      <g>
        <path class="cls-7" d="M868.61,442.3c81.03,67.78,132.38,68.04,166.21,44.12,25.02-17.69,32.19-42.76,54.82-54.08,43.23-21.62,88.91,33.92,127.81,104.22"/>
        <path class="cls-7" d="M877.53,432.28c1.17.82,2.17,1.89,2.94,3.17-3.1,4.39-8.23,6.98-11.97,6.05,3.95,2.96,5.33,10.27,5.38,16.39"/>
      </g>
      <g>
        <path class="cls-7" d="M1123.03,285.67c48.87,65.24,48.85,103.58,36.8,127.18-11.86,23.23-32.73,26.99-42.18,52.74-12.01,32.7,2.89,77.74,38.24,83.11,28.29,4.3,56.27-18.84,61.36-23.16"/>
        <path class="cls-7" d="M1112.49,302.97c.61.7,1.92-.53,2.61-1.6,3.25-5.02,5.82-10.48,7.53-16,2.17-.97,4.92-2.17,7.05-3.39"/>
      </g>
      <g>
        <path class="cls-7" d="M1219.62,531.21c25.41-27.52,48.49-61.46,36.57-88.2-13.62-30.55-64.92-33.67-64.48-51.51.27-11.04,20.33-26.28,101.97-45.78"/>
        <path class="cls-7" d="M1293.01,356c-2.82-3.17-2.34-8.17,1.07-11.17-5.28.97-10.2-5.02-9.2-9.48"/>
      </g>
      <g>
        <path class="cls-7" d="M1133.4,280.16c51.35,6.65,67.2,27.95,71.84,46.88,1.95,7.96,1.98,15.73-10.21,89.9-9.36,56.95-13.22,75.78-6.69,92.65,6.31,16.32,19.04,22.3,28.17,24.82"/>
        <path class="cls-7" d="M1130.5,290.81c2.7-1.49,4.16-6.93,2.97-11,4.33-.32,9.3-2.89,13.17-5.95"/>
      </g>
      <g>
        <path class="cls-7" d="M1219.78,534.76c-11.41-46.67-29.87-67.03-44.74-76.98-25.45-17.02-44.1-6.05-73.61-26.19-28.75-19.62-46.64-54.32-40.51-61.81,7.47-9.12,49.26,23.81,58.83,13.89,6.91-7.17-6.88-32.69-24.12-58.87"/>
        <path class="cls-7" d="M1090.97,331.85c.2.46.81.15,1-.22,1.15-2.29,2.31-4.59,3.46-6.88,1.26,1.55,4.23,2.34,5.98,2.34"/>
      </g>
      <g>
        <path class="cls-7" d="M1198.15,535.31c32.08-.7,37.07-17.52,35.07-33.71-2.84-22.96-19.3-41.34-38.11-92.88-11.06-30.31-25.58-70.09-18.16-86.38,9.65-21.21,49.47,12.71,49.56-6.49.05-11.48-14.14-33.99-26.23-51.33"/>
        <path class="cls-7" d="M1202.83,279.37c.69-3.75-.5-9.53-3.16-15.35,4.09,2.76,8.75,6.87,12.84,9.63"/>
      </g>
      <g>
        <path class="cls-7" d="M1223.17,530.38c-42.39,10.65-96.85,16.52-128.21-15.92-40.72-42.11-9.44-114.58-48.27-163.24-19.34-24.24-58.99-46.22-149.13-31.65"/>
        <path class="cls-7" d="M906.06,335.11c-3.31-5.6-6.62-11.2-9.93-16.8,8.56-5.41,17.44-10.63,24.63-18.2"/>
      </g>
      <g>
        <path class="cls-7" d="M1227.9,523.63c-10.03-24.25-19.52-55.86-9.43-76.12,13.1-26.31,48.57-12.13,64.75-37.71,8.06-12.74,12.56-37.26-5.26-89.29"/>
        <path class="cls-7" d="M1272.3,326.39c2.01-2.26,4.02-4.53,6.03-6.79,3.44,4.71,6.84,9.62,11.04,13.4"/>
      </g>
      <g>
        <g>
          <polygon class="cls-7" points="1207.65 203.37 1218.32 201.35 1223.11 201.93 1222.74 205.9 1222.38 209.72 1212.58 232.63 1208.63 233.46 1207.65 203.37"/>
          <polyline class="cls-12" points="1226.62 202.36 1226.21 203.39 1214.1 233.5 1210 234.39 1208.63 233.46 1212.58 232.63 1222.38 209.72 1223.11 201.93"/>
          <ellipse class="cls-7" cx="1207.67" cy="242.64" rx="5.09" ry="7.89" transform="translate(796.07 1403.64) rotate(-81.84)"/>
          <ellipse class="cls-7" cx="1208.39" cy="243.28" rx="5.71" ry="8.78" transform="translate(795.38 1404.66) rotate(-81.81)"/>
          <path class="cls-12" d="M1209.57,237.74c.67.1,1.71.3,2.83.76.67.28,1.1.55,1.45.75.59.33,1.59.96,2.31,1.93.52.69.71,1.3.79,1.71.09.5.08.88.06,1.17-.06.78-.3,1.34-.36,1.48-.36.82-.95,1.46-1.52,1.94-.35.24-.88.57-1.64.86-1.27.49-2.53.65-3.35.71-.74.02-1.85,0-3.17-.26-1.81-.35-3.1-.96-3.79-1.32-.62-.36-1.47-.95-2.17-1.76-1.14-1.31-1.27-2.49-1.28-3.07.1.47.48,1.77,2.17,3.04,1.4,1.05,2.99,1.54,3.72,1.74.69.19,2.04.49,3.66.41,2.53-.12,3.95-1.09,4.35-1.39.46-.31,1.11-.85,1.51-1.64.55-1.07.35-2.05.19-2.55-.12-.39-.33-1.16-1.11-2-1.46-1.58-3.84-2.29-4.67-2.51Z"/>
        </g>
        <g>
          <polygon class="cls-7" points="1181.75 203.12 1192.42 201.1 1197.21 201.69 1196.84 205.65 1196.48 209.47 1186.69 232.38 1182.74 233.21 1181.75 203.12"/>
          <polyline class="cls-12" points="1200.72 202.12 1200.31 203.14 1188.2 233.26 1184.1 234.14 1182.74 233.21 1186.69 232.38 1196.48 209.47 1197.21 201.69"/>
          <ellipse class="cls-7" cx="1181.77" cy="242.39" rx="5.09" ry="7.89" transform="translate(774.1 1377.79) rotate(-81.84)"/>
          <ellipse class="cls-7" cx="1182.49" cy="243.03" rx="5.71" ry="8.78" transform="translate(773.42 1378.82) rotate(-81.81)"/>
          <path class="cls-12" d="M1183.68,237.49c.67.1,1.71.3,2.83.76.67.28,1.1.55,1.45.75.59.33,1.59.96,2.31,1.93.52.69.71,1.3.79,1.71.09.5.08.88.06,1.17-.06.78-.3,1.34-.36,1.48-.36.82-.95,1.46-1.52,1.94-.35.24-.88.57-1.64.86-1.27.49-2.53.65-3.35.71-.74.02-1.85,0-3.17-.26-1.81-.35-3.1-.96-3.79-1.32-.62-.36-1.47-.95-2.17-1.76-1.14-1.31-1.27-2.49-1.28-3.07.1.47.48,1.77,2.17,3.04,1.4,1.05,2.99,1.54,3.72,1.74.69.19,2.04.49,3.66.41,2.53-.12,3.95-1.09,4.35-1.39.46-.31,1.11-.85,1.51-1.64.55-1.07.35-2.05.19-2.55-.12-.39-.33-1.16-1.11-2-1.46-1.58-3.84-2.29-4.67-2.51Z"/>
        </g>
      </g>
      <g>
        <ellipse class="cls-6" cx="1074.67" cy="251.64" rx="33.33" ry="33.96"/>
        <line class="cls-2" x1="1074.67" y1="211.38" x2="1074.67" y2="188.19"/>
        <line class="cls-2" x1="1103.8" y1="224.68" x2="1113.73" y2="211.38"/>
        <line class="cls-2" x1="1041.34" y1="227.36" x2="1033.61" y2="217.68"/>
        <line class="cls-2" x1="1033.61" y1="259.46" x2="1021.81" y2="259.46"/>
        <line class="cls-2" x1="1041.34" y1="283.33" x2="1033.61" y2="295.09"/>
        <line class="cls-2" x1="1116.84" y1="259.46" x2="1130.5" y2="259.46"/>
        <line class="cls-2" x1="1108.01" y1="280.71" x2="1113.73" y2="287.49"/>
        <path class="cls-9" d="M1067.38,280.71v-25.42c-.37-3.3,1.9-5.69,3.7-5.66,1.75.03,3.89,2.36,3.59,5.54-1.03,2.58-1.53,3.88-1.5,3.89.02,0,.56-1.25,1.62-3.77,1.66-1.65,2.76-1.82,3.47-1.65,3.78.87,5.33,13.25,3.01,23.59-.17.77-.34,1.4-.46,1.84"/>
        <path class="cls-9" d="M1074.67,285.61c2.72-1.08,5.46-.62,6.83,1.06.3.37.79,1.11.93,2.36-.74.36-1.85.82-3.24,1.18-3.69.95-6.43.35-6.48.71-.05.35,2.44,1.2,5.32,1.65,3.8.6,6.2.19,6.25.47.05.3-2.57,1.2-13.89,3.77-3.89,1.56-4.69,2.14-4.63,2.36.24.83,12.51-2.55,12.96-1.18.11.32-.47.74-4.17,3.54-3.48,2.63-5.21,3.97-5.09,4.95.06.5.48,1.33,2.78,2.12l2.43,2.02"/>
      </g>
    </g>
  </g>
</svg>